# xmcd
#
# Track frame offsets:
#	150
#	5385
#	25463
#	42550
#	57468
#	72585
#	90321
#	107674
#	121371
#	132575
#
# Disc length: 2155 seconds
#
# Revision: 2
# Processed by: cddbd v1.5.2PL0 Copyright (c) Steve Scherf et al.
# Submitted via: audiograbber 1.83.01
#
DISCID=8d08690a
DTITLE=Alabama 3 - The Last Train To Mashville Vol. 1
DYEAR=2004
DGENRE=Acoustic
TTITLE0=Fixin' To Live
TTITLE1=Up Above My Head
TTITLE2=Shake A Tailfeather
TTITLE3=Reachin'
TTITLE4=Strobe Life
TTITLE5=R.E.H.A.B.
TTITLE6=The Moon Has Lost The Sun
TTITLE7=Lord Have Mercy
TTITLE8=Power In The Blood
TTITLE9=Let's Go Back To Church
EXTD=
EXTT0=
EXTT1=
EXTT2=
EXTT3=
EXTT4=
EXTT5=
EXTT6=
EXTT7=
EXTT8=
EXTT9=
PLAYORDER=
